<svg width="239" height="59" viewBox="0 0 239 59" fill="none" xmlns="http://www.w3.org/2000/svg">
<rect x="1.5" y="1" width="236" height="57" rx="7" fill="#819B57"/>
<rect x="1.5" y="1" width="236" height="57" rx="7" stroke="#819B57" stroke-width="2"/>
<path d="M42.994 26.154C42.994 27.018 42.688 27.714 42.076 28.242C41.464 28.77 40.684 29.1 39.736 29.232V29.286C40.912 29.406 41.812 29.736 42.436 30.276C43.072 30.804 43.39 31.494 43.39 32.346C43.39 33.09 43.186 33.756 42.778 34.344C42.37 34.92 41.764 35.37 40.96 35.694C40.156 36.018 39.16 36.18 37.972 36.18C37 36.18 36.136 36.12 35.38 36C34.636 35.88 33.988 35.706 33.436 35.478V33.192C33.808 33.372 34.228 33.528 34.696 33.66C35.164 33.78 35.638 33.876 36.118 33.948C36.598 34.008 37.042 34.038 37.45 34.038C38.59 34.038 39.412 33.876 39.916 33.552C40.432 33.216 40.69 32.748 40.69 32.148C40.69 31.536 40.318 31.092 39.574 30.816C38.83 30.528 37.828 30.384 36.568 30.384H35.362V28.26H36.442C37.462 28.26 38.254 28.194 38.818 28.062C39.382 27.93 39.778 27.738 40.006 27.486C40.234 27.234 40.348 26.934 40.348 26.586C40.348 26.142 40.15 25.794 39.754 25.542C39.37 25.278 38.788 25.146 38.008 25.146C37.348 25.146 36.724 25.242 36.136 25.434C35.56 25.626 35.02 25.878 34.516 26.19L33.328 24.372C33.772 24.084 34.24 23.838 34.732 23.634C35.236 23.418 35.788 23.256 36.388 23.148C36.988 23.028 37.654 22.968 38.386 22.968C39.358 22.968 40.186 23.106 40.87 23.382C41.554 23.658 42.076 24.036 42.436 24.516C42.808 24.984 42.994 25.53 42.994 26.154ZM49.6079 25.974C50.9279 25.974 51.9359 26.262 52.6319 26.838C53.3399 27.402 53.6939 28.272 53.6939 29.448V36H51.8219L51.2999 34.668H51.2279C50.9519 35.016 50.6639 35.304 50.3639 35.532C50.0759 35.76 49.7399 35.922 49.3559 36.018C48.9839 36.126 48.5219 36.18 47.9699 36.18C47.3939 36.18 46.8719 36.072 46.4039 35.856C45.9479 35.628 45.5879 35.286 45.3239 34.83C45.0599 34.362 44.9279 33.774 44.9279 33.066C44.9279 32.022 45.2939 31.254 46.0259 30.762C46.7579 30.258 47.8559 29.982 49.3199 29.934L51.0299 29.88V29.448C51.0299 28.932 50.8919 28.554 50.6159 28.314C50.3519 28.074 49.9799 27.954 49.4999 27.954C49.0199 27.954 48.5519 28.026 48.0959 28.17C47.6399 28.302 47.1839 28.47 46.7279 28.674L45.8459 26.856C46.3739 26.58 46.9559 26.364 47.5919 26.208C48.2399 26.052 48.9119 25.974 49.6079 25.974ZM49.9859 31.482C49.1219 31.506 48.5219 31.662 48.1859 31.95C47.8499 32.238 47.6819 32.616 47.6819 33.084C47.6819 33.492 47.8019 33.786 48.0419 33.966C48.2819 34.134 48.5939 34.218 48.9779 34.218C49.5539 34.218 50.0399 34.05 50.4359 33.714C50.8319 33.366 51.0299 32.88 51.0299 32.256V31.446L49.9859 31.482ZM68.8232 26.172V36H66.3212V31.176C66.3212 30.696 66.3272 30.228 66.3392 29.772C66.3632 29.316 66.3932 28.896 66.4292 28.512H66.3752L63.6572 36H61.6412L58.8872 28.494H58.8152C58.8632 28.89 58.8932 29.316 58.9052 29.772C58.9292 30.216 58.9412 30.708 58.9412 31.248V36H56.4392V26.172H60.2372L62.6852 32.832L65.1692 26.172H68.8232ZM80.5547 31.068C80.5547 31.884 80.4407 32.61 80.2127 33.246C79.9967 33.882 79.6787 34.422 79.2587 34.866C78.8507 35.298 78.3527 35.628 77.7647 35.856C77.1767 36.072 76.5107 36.18 75.7667 36.18C75.0827 36.18 74.4467 36.072 73.8587 35.856C73.2827 35.628 72.7847 35.298 72.3647 34.866C71.9447 34.422 71.6147 33.882 71.3747 33.246C71.1467 32.61 71.0327 31.884 71.0327 31.068C71.0327 29.976 71.2247 29.058 71.6087 28.314C71.9927 27.558 72.5447 26.982 73.2647 26.586C73.9847 26.19 74.8367 25.992 75.8207 25.992C76.7447 25.992 77.5607 26.19 78.2687 26.586C78.9767 26.982 79.5347 27.558 79.9427 28.314C80.3507 29.058 80.5547 29.976 80.5547 31.068ZM73.7687 31.068C73.7687 31.716 73.8347 32.262 73.9667 32.706C74.1107 33.138 74.3327 33.468 74.6327 33.696C74.9327 33.912 75.3227 34.02 75.8027 34.02C76.2827 34.02 76.6667 33.912 76.9547 33.696C77.2547 33.468 77.4707 33.138 77.6027 32.706C77.7467 32.262 77.8187 31.716 77.8187 31.068C77.8187 30.42 77.7467 29.88 77.6027 29.448C77.4707 29.016 77.2547 28.692 76.9547 28.476C76.6547 28.26 76.2647 28.152 75.7847 28.152C75.0767 28.152 74.5607 28.398 74.2367 28.89C73.9247 29.37 73.7687 30.096 73.7687 31.068ZM91.4832 28.746C91.4832 29.274 91.3152 29.724 90.9792 30.096C90.6552 30.468 90.1692 30.708 89.5212 30.816V30.888C90.2052 30.972 90.7512 31.206 91.1592 31.59C91.5792 31.974 91.7892 32.466 91.7892 33.066C91.7892 33.486 91.7052 33.876 91.5372 34.236C91.3812 34.596 91.1292 34.908 90.7812 35.172C90.4332 35.436 89.9832 35.64 89.4312 35.784C88.8912 35.928 88.2312 36 87.4512 36H82.7712V26.172H87.4512C88.2192 26.172 88.9032 26.256 89.5032 26.424C90.1152 26.58 90.5952 26.844 90.9432 27.216C91.3032 27.588 91.4832 28.098 91.4832 28.746ZM89.0172 32.922C89.0172 32.538 88.8672 32.262 88.5672 32.094C88.2672 31.914 87.8172 31.824 87.2172 31.824H85.4532V34.146H87.2712C87.7752 34.146 88.1892 34.056 88.5132 33.876C88.8492 33.684 89.0172 33.366 89.0172 32.922ZM88.7652 28.962C88.7652 28.65 88.6452 28.422 88.4052 28.278C88.1652 28.134 87.8112 28.062 87.3432 28.062H85.4532V30.006H87.0372C87.6012 30.006 88.0272 29.928 88.3152 29.772C88.6152 29.604 88.7652 29.334 88.7652 28.962ZM96.6835 30.06C96.6835 30.264 96.6715 30.516 96.6475 30.816C96.6355 31.116 96.6175 31.422 96.5935 31.734C96.5815 32.046 96.5635 32.322 96.5395 32.562C96.5155 32.802 96.4975 32.97 96.4855 33.066L101.022 26.172H104.244V36H101.652V32.076C101.652 31.752 101.664 31.398 101.688 31.014C101.712 30.618 101.736 30.252 101.76 29.916C101.796 29.568 101.82 29.304 101.832 29.124L97.3135 36H94.0915V26.172H96.6835V30.06ZM115.183 28.188H111.961V36H109.279V28.188H106.057V26.172H115.183V28.188ZM119.588 30.06C119.588 30.264 119.576 30.516 119.552 30.816C119.54 31.116 119.522 31.422 119.498 31.734C119.486 32.046 119.468 32.322 119.444 32.562C119.42 32.802 119.402 32.97 119.39 33.066L123.926 26.172H127.148V36H124.556V32.076C124.556 31.752 124.568 31.398 124.592 31.014C124.616 30.618 124.64 30.252 124.664 29.916C124.7 29.568 124.724 29.304 124.736 29.124L120.218 36H116.996V26.172H119.588V30.06ZM143.078 26.172V34.038H144.518V39.528H142.106V36H135.5V39.528H133.088V34.038H133.916C134.348 33.378 134.714 32.628 135.014 31.788C135.314 30.936 135.554 30.03 135.734 29.07C135.914 28.11 136.046 27.144 136.13 26.172H143.078ZM138.38 28.188C138.284 28.908 138.164 29.61 138.02 30.294C137.876 30.966 137.696 31.614 137.48 32.238C137.276 32.862 137.024 33.462 136.724 34.038H140.396V28.188H138.38ZM149.775 25.992C150.483 25.992 151.143 26.088 151.755 26.28C152.379 26.46 152.877 26.742 153.249 27.126C153.633 27.51 153.825 28.002 153.825 28.602C153.825 29.19 153.645 29.658 153.285 30.006C152.937 30.354 152.463 30.606 151.863 30.762V30.852C152.283 30.948 152.661 31.086 152.997 31.266C153.333 31.434 153.597 31.668 153.789 31.968C153.993 32.256 154.095 32.646 154.095 33.138C154.095 33.678 153.921 34.182 153.573 34.65C153.237 35.106 152.709 35.478 151.989 35.766C151.281 36.042 150.369 36.18 149.253 36.18C148.725 36.18 148.227 36.156 147.759 36.108C147.291 36.06 146.865 35.994 146.481 35.91C146.097 35.814 145.761 35.7 145.473 35.568V33.354C145.881 33.546 146.379 33.72 146.967 33.876C147.567 34.032 148.203 34.11 148.875 34.11C149.367 34.11 149.805 34.074 150.189 34.002C150.585 33.93 150.897 33.81 151.125 33.642C151.365 33.474 151.485 33.252 151.485 32.976C151.485 32.712 151.383 32.496 151.179 32.328C150.975 32.148 150.669 32.016 150.261 31.932C149.853 31.848 149.331 31.806 148.695 31.806H147.651V29.952H148.641C149.529 29.952 150.213 29.88 150.693 29.736C151.185 29.592 151.431 29.322 151.431 28.926C151.431 28.614 151.275 28.38 150.963 28.224C150.651 28.056 150.141 27.972 149.433 27.972C148.965 27.972 148.455 28.026 147.903 28.134C147.351 28.242 146.829 28.398 146.337 28.602L145.545 26.73C146.109 26.514 146.727 26.34 147.399 26.208C148.071 26.064 148.863 25.992 149.775 25.992ZM164.889 28.746C164.889 29.274 164.721 29.724 164.385 30.096C164.061 30.468 163.575 30.708 162.927 30.816V30.888C163.611 30.972 164.157 31.206 164.565 31.59C164.985 31.974 165.195 32.466 165.195 33.066C165.195 33.486 165.111 33.876 164.943 34.236C164.787 34.596 164.535 34.908 164.187 35.172C163.839 35.436 163.389 35.64 162.837 35.784C162.297 35.928 161.637 36 160.857 36H156.177V26.172H160.857C161.625 26.172 162.309 26.256 162.909 26.424C163.521 26.58 164.001 26.844 164.349 27.216C164.709 27.588 164.889 28.098 164.889 28.746ZM162.423 32.922C162.423 32.538 162.273 32.262 161.973 32.094C161.673 31.914 161.223 31.824 160.623 31.824H158.859V34.146H160.677C161.181 34.146 161.595 34.056 161.919 33.876C162.255 33.684 162.423 33.366 162.423 32.922ZM162.171 28.962C162.171 28.65 162.051 28.422 161.811 28.278C161.571 28.134 161.217 28.062 160.749 28.062H158.859V30.006H160.443C161.007 30.006 161.433 29.928 161.721 29.772C162.021 29.604 162.171 29.334 162.171 28.962ZM170.18 26.172V36H167.498V26.172H170.18ZM168.848 22.32C169.244 22.32 169.586 22.416 169.874 22.608C170.162 22.788 170.306 23.13 170.306 23.634C170.306 24.126 170.162 24.468 169.874 24.66C169.586 24.852 169.244 24.948 168.848 24.948C168.44 24.948 168.092 24.852 167.804 24.66C167.528 24.468 167.39 24.126 167.39 23.634C167.39 23.13 167.528 22.788 167.804 22.608C168.092 22.416 168.44 22.32 168.848 22.32ZM175.664 26.172V29.952H179.408V26.172H182.09V36H179.408V31.95H175.664V36H172.982V26.172H175.664ZM193.828 31.068C193.828 31.884 193.714 32.61 193.486 33.246C193.27 33.882 192.952 34.422 192.532 34.866C192.124 35.298 191.626 35.628 191.038 35.856C190.45 36.072 189.784 36.18 189.04 36.18C188.356 36.18 187.72 36.072 187.132 35.856C186.556 35.628 186.058 35.298 185.638 34.866C185.218 34.422 184.888 33.882 184.648 33.246C184.42 32.61 184.306 31.884 184.306 31.068C184.306 29.976 184.498 29.058 184.882 28.314C185.266 27.558 185.818 26.982 186.538 26.586C187.258 26.19 188.11 25.992 189.094 25.992C190.018 25.992 190.834 26.19 191.542 26.586C192.25 26.982 192.808 27.558 193.216 28.314C193.624 29.058 193.828 29.976 193.828 31.068ZM187.042 31.068C187.042 31.716 187.108 32.262 187.24 32.706C187.384 33.138 187.606 33.468 187.906 33.696C188.206 33.912 188.596 34.02 189.076 34.02C189.556 34.02 189.94 33.912 190.228 33.696C190.528 33.468 190.744 33.138 190.876 32.706C191.02 32.262 191.092 31.716 191.092 31.068C191.092 30.42 191.02 29.88 190.876 29.448C190.744 29.016 190.528 28.692 190.228 28.476C189.928 28.26 189.538 28.152 189.058 28.152C188.35 28.152 187.834 28.398 187.51 28.89C187.198 29.37 187.042 30.096 187.042 31.068ZM202.489 26.172H205.441L201.553 30.888L205.783 36H202.741L198.727 31.014V36H196.045V26.172H198.727V30.942L202.489 26.172Z" fill="#FAF4EA"/>
</svg>
